<svg version="1.1" id="Layer_1" xmlns="http://www.w3.org/2000/svg" xmlns:xlink="http://www.w3.org/1999/xlink" x="0px" y="0px"
	 width="64px" height="64px" viewBox="0.5 0.5 64 64" enable-background="new 0.5 0.5 64 64" xml:space="preserve">
    <path  fill="#1E1E1E" stroke="#1D0007" stroke-width="2" stroke-miterlimit="10" d="M31.996,3.191
	c16.245,0,29.411,13.166,29.411,29.408c0,16.234-13.166,29.4-29.411,29.4C15.758,62,2.593,48.834,2.593,32.6
	C2.593,16.357,15.758,3.191,31.996,3.191z" class="ledring"/>
    <polygon fill="#909090" stroke="#666666" stroke-width="2" stroke-miterlimit="10" points="13.521,42.421 13.697,21.496 
	32.173,11.674 50.477,22.776 50.298,43.698 31.822,53.521 "/>
    <path fill="#CCCCCC" stroke="#B3B3B3" stroke-width="2" stroke-miterlimit="10" d="M31.997,14.357
	c10.076,0,18.242,8.166,18.242,18.24c0,10.07-8.166,18.236-18.242,18.236c-10.071,0-18.237-8.166-18.237-18.236
	C13.76,22.523,21.926,14.357,31.997,14.357z"/>
</svg>